#!OML:ASF E:\Mandelcareful walks\Project 1\Capture day 1\Session 1\Subject1.ASF
:FULLY-SPECIFIED
:DEGREES
54
root -10.8144 2.29727 0.652802 159.996 5.79598 -85.5747
lowerback 32.2978 0.977255 7.68612
upperback 7.30381 2.33724 5.23183
thorax -8.36713 0.0636837 0.741467
lowerneck -25.32 -0.231843 -6.95645
upperneck 24.8638 9.14987 -15.1233
head 13.401 1.60541 -2.97743
rclavicle 1.37161e-014 1.01778e-013
rhumerus -16.0914 52.9668 -110.366
rradius 93.447
rwrist -6.25651
rhand -11.5844 -11.191
rfingers 7.12502
rthumb 14.4575 -40.6674
lclavicle 1.37161e-014 1.01778e-013
lhumerus 90.8149 -18.1801 -26.6485
lradius 31.1043
lwrist 47.8857
lhand -16.4767 15.5972
lfingers 7.12502
lthumb 9.74021 45.352
rfemur -11.5137 -20.8025 31.176
rtibia 75.4508
rfoot 15.1048 -7.59674
rtoes -7.95895
lfemur -32.2344 -12.9342 -8.6578
ltibia 39.1621
lfoot 15.7971 7.6263
ltoes 4.11828
55
root -10.813 2.29938 0.650934 160.084 5.84101 -85.4021
lowerback 32.1949 0.946977 7.81166
upperback 7.31196 2.32965 5.27524
thorax -8.3106 0.0584051 0.724207
lowerneck -25.4525 -0.122675 -6.85579
upperneck 24.9522 9.32504 -15.1454
head 13.4814 1.67695 -2.97281
rclavicle -5.18828e-014 -1.98785e-013
rhumerus -15.9946 52.8926 -110.34
rradius 93.5088
rwrist -6.0773
rhand -11.205 -11.266
rfingers 7.12502
rthumb 14.823 -40.7158
lclavicle -5.18828e-014 -1.98785e-013
lhumerus 90.6785 -18.1807 -26.537
lradius 31.1044
lwrist 47.7577
lhand -16.3052 15.5426
lfingers 7.12502
lthumb 9.90576 45.2895
rfemur -11.5871 -20.7873 31.4129
rtibia 75.4247
rfoot 14.9328 -7.88016
rtoes -7.17942
lfemur -32.3799 -12.9633 -8.42016
ltibia 39.2848
lfoot 15.7 7.61145
ltoes 4.0658
56
root -10.8071 2.288 0.649357 160.137 5.90685 -85.2558
lowerback 32.228 0.892475 8.01459
upperback 7.24661 2.34119 5.31709
thorax -8.38256 0.0570769 0.659536
lowerneck -25.4982 0.012744 -6.75467
upperneck 25.0737 9.54159 -15.1597
head 13.5604 1.7718 -2.95691
rclavicle 7.10158e-014 2.17868e-013
rhumerus -16.1232 52.8084 -110.413
rradius 93.5238
rwrist -5.99457
rhand -10.8549 -11.25
rfingers 7.12502
rthumb 15.1603 -40.6746
lclavicle 7.10158e-014 2.17868e-013
lhumerus 90.5913 -18.273 -26.2938
lradius 31.086
lwrist 47.703
lhand -15.8991 15.4873
lfingers 7.12502
lthumb 10.2975 45.2152
rfemur -11.6468 -20.8523 31.5076
rtibia 75.4507
rfoot 15.0273 -7.78689
rtoes -7.40479
lfemur -32.5043 -12.9102 -8.26989
ltibia 39.4027
lfoot 15.575 7.60877
ltoes 4.17284
57
root -10.8014 2.28244 0.654333 160.208 5.95926 -85.1127
lowerback 32.2972 0.830057 8.20903
upperback 7.17487 2.3434 5.32003
thorax -8.47471 0.052381 0.561595
lowerneck -25.4417 0.0469881 -6.80155
upperneck 25.0669 9.56528 -15.0668
head 13.5368 1.79371 -2.90628
rclavicle -1.46604e-014 3.18055e-015
rhumerus -16.2361 52.7641 -110.562
rradius 93.4875
rwrist -5.97248
rhand -10.8066 -11.1384
rfingers 7.12502
rthumb 15.2068 -40.5596
lclavicle -1.46604e-014 3.18055e-015
lhumerus 90.4765 -18.4027 -26.0322
lradius 31.0607
lwrist 47.4697
lhand -15.7482 15.4446
lfingers 7.12502
lthumb 10.443 45.1652
rfemur -11.7709 -20.8904 31.671
rtibia 75.4926
rfoot 15.2072 -7.54155
rtoes -8.27776
lfemur -32.6667 -12.9283 -8.08262
ltibia 39.5229
lfoot 15.5404 7.64996
ltoes 4.23992
58
root -10.8004 2.28693 0.656979 160.286 5.9967 -84.9763
lowerback 32.284 0.794751 8.32585
upperback 7.13925 2.34254 5.31589
thorax -8.49998 0.0508742 0.49677
lowerneck -25.388 0.00708246 -6.88144
upperneck 25.01 9.48391 -15.0008
head 13.4878 1.76448 -2.88037
rclavicle 1.63003e-014 1.03368e-013
rhumerus -16.3602 52.7439 -110.76
rradius 93.4574
rwrist -6.02317
rhand -11.1935 -10.8433
rfingers 7.12502
rthumb 14.8341 -40.2923
lclavicle 1.63003e-014 1.03368e-013
lhumerus 90.3816 -18.5545 -25.8141
lradius 31.0143
lwrist 46.9032
lhand -15.9988 15.593
lfingers 7.12502
lthumb 10.2013 45.3256
rfemur -11.8772 -20.9031 31.8856
rtibia 75.4955
rfoot 15.2781 -7.44217
rtoes -8.76962
lfemur -32.8009 -13.0094 -7.86505
ltibia 39.6177
lfoot 15.5465 7.7018
ltoes 4.25814
59
root -10.8014 2.29142 0.655055 160.373 6.0078 -84.8279
lowerback 32.1734 0.7794 8.4336
upperback 7.1253 2.35299 5.34098
thorax -8.46447 0.056501 0.462922
lowerneck -25.3396 -0.0138316 -6.83484
upperneck 25.0034 9.44291 -15.0498
head 13.4782 1.74728 -2.91524
rclavicle -6.35117e-014 -2.54444e-013
rhumerus -16.4752 52.7061 -110.904
rradius 93.4724
rwrist -6.19805
rhand -11.5358 -10.6304
rfingers 7.12502
rthumb 14.5043 -40.1034
lclavicle -6.35117e-014 -2.54444e-013
lhumerus 90.4206 -18.6404 -25.8218
lradius 30.9984
lwrist 46.6978
lhand -16.1972 15.6879
lfingers 7.12502
lthumb 10.01 45.4299
rfemur -11.9388 -20.9108 32.1099
rtibia 75.4391
rfoot 15.3267 -7.45245
rtoes -8.77786
lfemur -32.9091 -13.0773 -7.66161
ltibia 39.6567
lfoot 15.5317 7.73715
ltoes 4.21672
60
root -10.8017 2.29282 0.655515 160.457 6.04118 -84.6661
lowerback 32.1822 0.749754 8.55707
upperback 7.05588 2.3739 5.3802
thorax -8.53684 0.0628435 0.433335
lowerneck -25.2369 0.0182257 -6.75679
upperneck 24.965 9.42582 -15.0412
head 13.44 1.75712 -2.92539
rclavicle -5.15846e-014 -1.43125e-013
rhumerus -16.5677 52.5888 -111.052
rradius 93.544
rwrist -6.14917
rhand -11.2161 -10.76
rfingers 7.12502
rthumb 14.8123 -40.2106
lclavicle -5.15846e-014 -1.43125e-013
lhumerus 90.5235 -18.6691 -26.136
lradius 31.0401
lwrist 47.108
lhand -16.1776 15.6266
lfingers 7.12502
lthumb 10.0288 45.3676
rfemur -11.9998 -20.8778 32.3622
rtibia 75.3649
rfoot 15.3649 -7.52858
rtoes -8.69904
lfemur -33.0007 -13.1061 -7.44838
ltibia 39.6561
lfoot 15.5322 7.77432
ltoes 4.25067
61
root -10.8051 2.28691 0.659041 160.549 6.09115 -84.5012
lowerback 32.2129 0.719795 8.74277
upperback 6.98231 2.41399 5.44896
thorax -8.61821 0.0726874 0.396777
lowerneck -25.0896 0.00135861 -6.84587
upperneck 24.8378 9.34091 -14.9425
head 13.3383 1.74144 -2.88162
rclavicle -7.93648e-014 -2.44903e-013
rhumerus -16.63 52.4696 -111.054
rradius 93.6237
rwrist -5.96974
rhand -10.6507 -11.133
rfingers 7.12502
rthumb 15.357 -40.5428
lclavicle -7.93648e-014 -2.44903e-013
lhumerus 90.5805 -18.6589 -26.3242
lradius 31.0773
lwrist 47.4419
lhand -16.1111 15.5514
lfingers 7.12502
lthumb 10.093 45.2894
rfemur -12.1081 -20.8427 32.5722
rtibia 75.3217
rfoot 15.3137 -7.69566
rtoes -8.15059
lfemur -33.0919 -13.1994 -7.23653
ltibia 39.6431
lfoot 15.5672 7.81351
ltoes 4.30455
62
root -10.8095 2.28098 0.662373 160.647 6.11301 -84.3293
lowerback 32.1782 0.700877 8.93661
upperback 6.93099 2.45938 5.52027
thorax -8.64802 0.0862221 0.356492
lowerneck -24.943 -0.0503132 -6.95119
upperneck 24.7255 9.22824 -14.8718
head 13.2447 1.70686 -2.85268
rclavicle -2.59911e-014 6.36111e-015
rhumerus -16.7041 52.4359 -111.024
rradius 93.6078
rwrist -6.09346
rhand -10.7394 -11.2787
rfingers 7.12502
rthumb 15.2715 -40.6949
lclavicle -2.59911e-014 6.36111e-015
lhumerus 90.6352 -18.6136 -26.4159
lradius 31.1182
lwrist 47.5236
lhand -16.0709 15.6296
lfingers 7.12502
lthumb 10.1318 45.3656
rfemur -12.2166 -20.8039 32.7826
rtibia 75.2655
rfoot 15.1746 -7.95671
rtoes -7.24007
lfemur -33.2005 -13.3598 -7.01797
ltibia 39.6361
lfoot 15.5892 7.85651
ltoes 4.33922
63
root -10.8106 2.28373 0.66222 160.743 6.11979 -84.152
lowerback 32.1317 0.667934 9.06581
upperback 6.88468 2.46787 5.55732
thorax -8.67251 0.0881006 0.325739
lowerneck -24.8785 -0.0267788 -6.875
upperneck 24.6713 9.18251 -14.8319
head 13.203 1.70579 -2.85549
rclavicle 1.53561e-014 3.02153e-014
rhumerus -16.8339 52.4405 -111.193
rradius 93.5344
rwrist -6.33953
rhand -11.172 -11.0016
rfingers 7.12502
rthumb 14.8548 -40.4491
lclavicle 1.53561e-014 3.02153e-014
lhumerus 90.6285 -18.6497 -26.4711
lradius 31.1385
lwrist 47.4032
lhand -15.9206 15.7675
lfingers 7.12502
lthumb 10.2768 45.4964
rfemur -12.3024 -20.7716 33.0518
rtibia 75.2005
rfoot 15.2029 -8.02658
rtoes -7.43887
lfemur -33.3181 -13.4771 -6.77396
ltibia 39.6454
lfoot 15.5976 7.89451
ltoes 4.32565
